# xmcd
#
# Track frame offsets:
# 150
# 16840
# 36459
# 53335
# 85522
#
# Disc length: 2136 seconds
#
# Revision: 1
# Processed by: cddbd v1.5.2PL0 Copyright (c) Steve Scherf et al.
# Submitted via: CedeCatalogueitor 2.6.0.6 http://personales.ya.com/cdcatalogueitor
#
DISCID=2b085605
DTITLE=Los Super Elegantes - EP
DYEAR=1900
DGENRE=
TTITLE0=Dance
TTITLE1=Nothing Really Matters
TTITLE2=Sixteen
TTITLE3=Panadero
TTITLE4=Sixteen Video
EXTD=
EXTT0=
EXTT1=
EXTT2=
EXTT3=
EXTT4=
PLAYORDER=
